<svg xmlns="http://www.w3.org/2000/svg" width="24" height="24" viewBox="0 0 24 24" fill="none">
<path fill-rule="evenodd" clip-rule="evenodd" d="M11.4697 1.46967C11.7626 1.17678 12.2374 1.17678 12.5303 1.46967L15.3107 4.25H19C19.4142 4.25 19.75 4.58579 19.75 5V8.68934L22.5303 11.4697C22.8232 11.7626 22.8232 12.2374 22.5303 12.5303L19.75 15.3107V19C19.75 19.4142 19.4142 19.75 19 19.75H15.3107L12.5303 22.5303C12.2374 22.8232 11.7626 22.8232 11.4697 22.5303L8.68934 19.75H5C4.58579 19.75 4.25 19.4142 4.25 19V15.3107L1.46967 12.5303C1.17678 12.2374 1.17678 11.7626 1.46967 11.4697L4.25 8.68934V5C4.25 4.58579 4.58579 4.25 5 4.25H8.68934L11.4697 1.46967ZM12 3.06066L9.53033 5.53033C9.38968 5.67098 9.19891 5.75 9 5.75H5.75V9C5.75 9.19891 5.67098 9.38968 5.53033 9.53033L3.06066 12L5.53033 14.4697C5.67098 14.6103 5.75 14.8011 5.75 15V18.25H9C9.19891 18.25 9.38968 18.329 9.53033 18.4697L12 20.9393L14.4697 18.4697C14.6103 18.329 14.8011 18.25 15 18.25H18.25V15C18.25 14.8011 18.329 14.6103 18.4697 14.4697L20.9393 12L18.4697 9.53033C18.329 9.38968 18.25 9.19891 18.25 9V5.75H15C14.8011 5.75 14.6103 5.67098 14.4697 5.53033L12 3.06066Z" fill="white"/>
<path fill-rule="evenodd" clip-rule="evenodd" d="M12 9.75C10.7574 9.75 9.75 10.7574 9.75 12C9.75 13.2426 10.7574 14.25 12 14.25C13.2426 14.25 14.25 13.2426 14.25 12C14.25 10.7574 13.2426 9.75 12 9.75ZM8.25 12C8.25 9.92893 9.92893 8.25 12 8.25C14.0711 8.25 15.75 9.92893 15.75 12C15.75 14.0711 14.0711 15.75 12 15.75C9.92893 15.75 8.25 14.0711 8.25 12Z" fill="white"/>
</svg>