<svg width="25" height="27" viewBox="0 0 25 27" fill="none" xmlns="http://www.w3.org/2000/svg">
<path fill-rule="evenodd" clip-rule="evenodd" d="M17.631 7.9265C16.3091 6.66259 14.6278 6.01904 12.7551 6.01904C9.43298 6.01904 6.62106 8.26277 5.61805 11.2776L5.61804 11.2776C5.36294 12.0429 5.218 12.8604 5.218 13.7011C5.218 14.5418 5.36294 15.3592 5.61804 16.1245L5.61801 16.1246H5.61805C6.62106 19.1394 9.43298 21.3831 12.7551 21.3831C14.4712 21.3831 15.9323 20.9309 17.0744 20.1656L17.0744 20.1656C18.4253 19.2611 19.324 17.9103 19.6197 16.3159H12.7551V11.382H24.7681C24.9188 12.2169 25 13.0865 25 13.991C25 17.8755 23.6085 21.1454 21.1967 23.366L21.1967 23.366C19.0863 25.314 16.199 26.4562 12.7551 26.4562C7.76902 26.4562 3.45548 23.5979 1.35668 19.4293L1.35668 19.4293C0.492811 17.7073 0 15.7593 0 13.7011C0 11.6429 0.492811 9.69482 1.35668 7.97288H1.35669C3.45548 3.80428 7.76902 0.945984 12.7551 0.945984C16.1932 0.945984 19.0805 2.2099 21.2894 4.26811L17.631 7.9265Z" fill="white"/>
</svg>
