<svg width="25" height="24" viewBox="0 0 25 24" fill="none" xmlns="http://www.w3.org/2000/svg">
<path d="M2.59449 11.0866L1.84731 11.1516L1.84731 11.1516L2.59449 11.0866ZM3.42057 20.5867L2.67339 20.6516L2.67339 20.6516L3.42057 20.5867ZM10.1376 9.71725L10.4574 10.3957L10.4574 10.3957L10.1376 9.71725ZM13 7.49025L12.3568 7.10456L12.3568 7.10458L13 7.49025ZM13.9956 3.10439L14.7449 3.13769L14.7449 3.13763L13.9956 3.10439ZM14.0077 2.86828L14.7506 2.97132L14.7506 2.9713L14.0077 2.86828ZM16.75 4.23806L17.3932 3.85239L17.3932 3.85239L16.75 4.23806ZM17.1513 6.42315L17.8999 6.46917L17.8999 6.46916L17.1513 6.42315ZM16.6901 8.52415L17.4085 8.73951L17.4085 8.73946L16.6901 8.52415ZM16.25 9.99225L15.5316 9.77689C15.4635 10.004 15.5068 10.2498 15.6483 10.44C15.7898 10.6302 16.0129 10.7423 16.25 10.7423V9.99225ZM22.6408 11.264L21.919 11.0602L21.919 11.0602L22.6408 11.264ZM19.9556 20.7718L19.2339 20.568L19.2339 20.568L19.9556 20.7718ZM3.34167 11.0217C3.32896 10.8756 3.44412 10.75 3.59073 10.75V9.25C2.5644 9.25 1.7584 10.1291 1.84731 11.1516L3.34167 11.0217ZM3.59073 10.75H5.5V9.25H3.59073V10.75ZM5.5 10.75C5.63808 10.75 5.75 10.8619 5.75 11H7.25C7.25 10.0335 6.46651 9.25 5.5 9.25V10.75ZM5.75 11V20.5H7.25V11H5.75ZM5.75 20.5C5.75 20.6381 5.63808 20.75 5.5 20.75V22.25C6.46651 22.25 7.25 21.4665 7.25 20.5H5.75ZM5.5 20.75H4.41681V22.25H5.5V20.75ZM4.41681 20.75C4.28712 20.75 4.17898 20.6508 4.16775 20.5217L2.67339 20.6516C2.75203 21.556 3.50909 22.25 4.41681 22.25V20.75ZM4.16775 20.5217L3.34167 11.0217L1.84731 11.1516L2.67339 20.6516L4.16775 20.5217ZM10.25 10.6873C10.25 10.5871 10.3164 10.4621 10.4574 10.3957L9.81787 9.03884C9.20296 9.32868 8.75 9.9517 8.75 10.6873H10.25ZM10.4574 10.3957C10.8929 10.1904 11.4917 9.87682 12.0725 9.46723C12.6453 9.06336 13.2498 8.53208 13.6432 7.87593L12.3568 7.10458C12.1166 7.50507 11.7021 7.89302 11.2081 8.24135C10.7223 8.58396 10.2067 8.85557 9.81785 9.03885L10.4574 10.3957ZM13.6432 7.87594C14.1265 7.07003 14.387 5.99932 14.5343 5.12219C14.6849 4.22492 14.7316 3.43567 14.7449 3.13769L13.2463 3.07109C13.2345 3.3367 13.1917 4.05948 13.055 4.87379C12.9148 5.70825 12.6901 6.54867 12.3568 7.10456L13.6432 7.87594ZM14.7449 3.13763C14.7461 3.10946 14.7468 3.08307 14.7472 3.06235C14.7478 3.03933 14.748 3.02504 14.7485 3.00952C14.7495 2.97976 14.7506 2.97131 14.7506 2.97132L13.2648 2.76524C13.2478 2.88798 13.2465 3.06695 13.2463 3.07115L14.7449 3.13763ZM14.7506 2.9713C14.7497 2.97749 14.7337 3.06653 14.6392 3.15248C14.5461 3.23703 14.4538 3.2487 14.4333 3.24984C14.4296 3.25005 14.5497 3.25801 14.8009 3.39428C15.2743 3.65111 15.8216 4.14812 16.1068 4.62373L17.3932 3.85239C16.9556 3.1224 16.1994 2.44649 15.5162 2.07582C15.1891 1.89834 14.7676 1.72891 14.3499 1.75216C14.1225 1.76483 13.8551 1.83813 13.6303 2.04243C13.404 2.24814 13.2995 2.51506 13.2648 2.76526L14.7506 2.9713ZM16.1068 4.62373C16.379 5.07776 16.4415 5.74683 16.4028 6.37714L17.8999 6.46916C17.9437 5.75717 17.9056 4.70695 17.3932 3.85239L16.1068 4.62373ZM16.4028 6.37713C16.3649 6.99343 16.1834 7.60243 15.9717 8.30884L17.4085 8.73946C17.6099 8.06747 17.8495 7.28907 17.8999 6.46917L16.4028 6.37713ZM15.9717 8.30879L15.5316 9.77689L16.9684 10.2076L17.4085 8.73951L15.9717 8.30879ZM16.25 10.7423H21.6784V9.24225H16.25V10.7423ZM21.6784 10.7423C21.8443 10.7423 21.9641 10.9007 21.919 11.0602L23.3626 11.4679C23.678 10.3511 22.8389 9.24225 21.6784 9.24225V10.7423ZM21.919 11.0602L19.2339 20.568L20.6774 20.9756L23.3626 11.4679L21.919 11.0602ZM19.2339 20.568C19.2035 20.6756 19.1052 20.75 18.9933 20.75V22.25C19.7766 22.25 20.4645 21.7295 20.6774 20.9756L19.2339 20.568ZM18.9933 20.75H10.5V22.25H18.9933V20.75ZM10.5 20.75C10.3619 20.75 10.25 20.6381 10.25 20.5H8.75C8.75 21.4665 9.53348 22.25 10.5 22.25V20.75ZM10.25 20.5V10.6873H8.75V20.5H10.25Z" fill="white"/>
</svg>
