<svg width="253" height="249" viewBox="0 0 253 249" fill="none" xmlns="http://www.w3.org/2000/svg">
<path d="M0 92C0 48.6308 0 26.9462 13.4731 13.4731C26.9462 0 48.6308 0 92 0H161C204.369 0 226.054 0 239.527 13.4731C253 26.9462 253 48.6308 253 92V147C253 195.083 253 219.125 238.062 234.062C223.125 249 199.083 249 151 249H102C53.9167 249 29.8751 249 14.9376 234.062C0 219.125 0 195.083 0 147V92Z" fill="url(#paint0_linear_319_2816)"/>
<circle cx="46" cy="62.3638" r="1.36364" fill="url(#paint1_linear_319_2816)"/>
<path d="M25.6724 37.8636L46 55.7879L66.3276 37.8636H25.6724Z" fill="black" stroke="#9B4ECB"/>
<rect x="25.6296" y="35.5456" width="41.6667" height="1.81818" fill="#9B4ECB"/>
<rect x="23.75" y="35.3862" width="43.8704" height="43.0455" rx="4.25" stroke="#9B4ECB" stroke-width="1.5"/>
<path d="M0 197.8H250V247H0V197.8Z" fill="#985ABF"/>
<path d="M0 148.6H250V197.8H0V148.6Z" fill="#EF3938"/>
<path d="M0 99.4001H250V148.6H0V99.4001Z" fill="#EE963F"/>
<path d="M0 50.2001H250V99.4001H0V50.2001Z" fill="#3F89C8"/>
<path d="M0 1H250V50.2H0V1Z" fill="#D74B88"/>
<defs>
<linearGradient id="paint0_linear_319_2816" x1="126.5" y1="0" x2="126.5" y2="249" gradientUnits="userSpaceOnUse">
<stop stop-color="white" stop-opacity="0.88"/>
<stop offset="1" stop-color="white" stop-opacity="0.73"/>
</linearGradient>
<linearGradient id="paint1_linear_319_2816" x1="44.7917" y1="58.2047" x2="49.4334" y2="59.8485" gradientUnits="userSpaceOnUse">
<stop stop-color="#7569FF"/>
<stop offset="1" stop-color="#D869FF"/>
</linearGradient>
</defs>
</svg>
