<svg width="25" height="24" viewBox="0 0 25 24" fill="none" xmlns="http://www.w3.org/2000/svg">
<path fillRule="evenodd" clipRule="evenodd" d="M12.2984 1.25391C12.4329 1.21466 12.5758 1.21468 12.7102 1.25396L21.5223 3.82815C21.8357 3.91968 22.051 4.20695 22.051 4.53337V9.81242C22.051 15.6773 18.2977 20.8841 12.7335 22.7381C12.5828 22.7883 12.4198 22.7883 12.2691 22.7381C6.70346 20.8842 2.94898 15.6763 2.94898 9.80997V4.53337C2.94898 4.20688 3.16444 3.91957 3.47785 3.8281L12.2984 1.25391ZM4.41837 5.0843V9.80997C4.41837 14.9617 7.66384 19.5443 12.5012 21.2641C17.3373 19.5442 20.5816 14.9628 20.5816 9.81242V5.08415L12.5041 2.72455L4.41837 5.0843Z" fill="white"/>
<path fillRule="evenodd" clipRule="evenodd" d="M17.9175 8.29685C18.2044 8.58377 18.2044 9.04895 17.9175 9.33587L12.0399 15.2134C11.753 15.5003 11.2878 15.5003 11.0009 15.2134L7.57233 11.7848C7.28541 11.4979 7.28541 11.0327 7.57233 10.7458C7.85924 10.4589 8.32442 10.4589 8.61134 10.7458L11.5204 13.6549L16.8784 8.29685C17.1654 8.00994 17.6305 8.00994 17.9175 8.29685Z" fill="white"/>
</svg>
