<svg width="67" height="66" viewBox="0 0 67 66" fill="none" xmlns="http://www.w3.org/2000/svg">
<path fill-rule="evenodd" clip-rule="evenodd" d="M30.9008 47.5502C30.8805 47.9752 31.1322 48.3328 31.528 48.4414L33.532 48.9911C38.0891 50.2412 43.2897 48.7164 46.9835 45.0471L47.3894 44.6439C47.9024 45.1092 48.4227 45.5669 48.95 46.0168L49.846 46.7811C50.5698 47.3986 51.7934 46.9302 52.0767 45.9272C53.0122 42.616 53.3263 39.2349 53.0021 35.9641L52.9003 34.9365C52.8587 34.5171 52.5485 34.2048 52.1294 34.1604L51.1025 34.0518C47.8339 33.7059 44.4508 33.9974 41.1334 34.9109C40.1286 35.1876 39.652 36.408 40.2647 37.1359L41.0231 38.0369C41.5558 38.6698 42.0996 39.2927 42.6544 39.9052C40.5273 42.1304 37.9608 43.9082 35.1462 45.0828L31.618 46.5552C31.2089 46.7259 30.9211 47.1252 30.9008 47.5502ZM34.9885 47.221L35.7142 46.9182C39.1469 45.4857 42.2458 43.2421 44.7275 40.4186C45.0859 40.0108 45.1103 39.4351 44.784 39.0839C44.0442 38.2875 43.3236 37.4726 42.6227 36.64L42.5525 36.5565C45.2577 35.9373 47.9942 35.7632 50.649 36.0441L50.9745 36.0786L51.0068 36.4043C51.27 39.0609 51.0778 41.7962 50.4406 44.4972L50.3576 44.4264C49.6185 43.7959 48.8937 43.1497 48.1836 42.4883C47.8139 42.1438 47.1985 42.1907 46.7922 42.5943L45.6621 43.7168C42.7265 46.633 38.6661 47.9484 34.9885 47.221Z" fill="#60708F"/>
<path fill-rule="evenodd" clip-rule="evenodd" d="M36.0992 18.4499C36.1195 18.0249 35.8678 17.6673 35.472 17.5587L33.468 17.0089C28.9109 15.7588 23.7103 17.2837 20.0165 20.953L19.6106 21.3562C19.0976 20.8909 18.5773 20.4332 18.05 19.9833L17.154 19.2189C16.4302 18.6015 15.2066 19.0698 14.9233 20.0728C13.9878 23.384 13.6737 26.7652 13.9979 30.036L14.0997 31.0636C14.1413 31.483 14.4515 31.7953 14.8706 31.8396L15.8975 31.9483C19.1661 32.2942 22.5492 32.0026 25.8666 31.0892C26.8714 30.8125 27.348 29.5921 26.7353 28.8642L25.9769 27.9632C25.4442 27.3302 24.9004 26.7074 24.3456 26.0948C26.4727 23.8697 29.0392 22.0918 31.8538 20.9172L35.382 19.4449C35.7911 19.2741 36.0789 18.8749 36.0992 18.4499ZM32.0115 18.779L31.2858 19.0819C27.8531 20.5144 24.7542 22.758 22.2725 25.5815C21.9141 25.9892 21.8897 26.5649 22.216 26.9161C22.9558 27.7126 23.6764 28.5274 24.3773 29.3601L24.4475 29.4435C21.7423 30.0628 19.0058 30.2368 16.351 29.9559L16.0255 29.9215L15.9932 29.5958C15.73 26.9392 15.9222 24.2038 16.5594 21.5028L16.6424 21.5736C17.3815 22.2041 18.1063 22.8503 18.8164 23.5118C19.1861 23.8563 19.8015 23.8094 20.2078 23.4058L21.3379 22.2832C24.2735 19.367 28.3339 18.0516 32.0115 18.779Z" fill="#60708F"/>
<path class= 'icon' d="M33.308 27.3753V24.0003" stroke="#60708F" stroke-width="3" stroke-linecap="round" stroke-linejoin="round"/>
<path class= 'icon' d="M29.0893 36.3753C29.0893 38.0628 30.9737 38.6253 33.308 38.6253C35.6424 38.6253 37.5268 38.6253 37.5268 36.3753C37.5268 33.0003 29.0893 33.0003 29.0893 29.6253C29.0893 27.3753 30.9737 27.3753 33.308 27.3753C35.6424 27.3753 37.5268 28.2303 37.5268 29.6253" stroke="#60708F" stroke-width="3" stroke-linecap="round" stroke-linejoin="round"/>
<path class= 'icon' d="M33.308 38.6253V42.0003" stroke="#60708F" stroke-width="3" stroke-linecap="round" stroke-linejoin="round"/>
</svg>
